<mxfile host="app.diagrams.net" agent="Mozilla/5.0 (Windows NT 10.0; Win64; x64) AppleWebKit/537.36 (KHTML, like Gecko) Chrome/139.0.0.0 Safari/537.36" version="28.1.1">
  <diagram name="Página-1" id="xUwYU2adKUpBdQ1YIx9R">
    <mxGraphModel dx="983" dy="536" grid="1" gridSize="10" guides="1" tooltips="1" connect="1" arrows="1" fold="1" page="1" pageScale="1" pageWidth="827" pageHeight="1169" math="0" shadow="0">
      <root>
        <mxCell id="0" />
        <mxCell id="1" parent="0" />
        <mxCell id="XrIg1SnajAhdOKtyu1J4-1" value="inicio" style="ellipse;whiteSpace=wrap;html=1;" vertex="1" parent="1">
          <mxGeometry x="365" y="10" width="70" height="50" as="geometry" />
        </mxCell>
        <mxCell id="XrIg1SnajAhdOKtyu1J4-2" value="leia&lt;div&gt;numero&lt;/div&gt;" style="shape=parallelogram;perimeter=parallelogramPerimeter;whiteSpace=wrap;html=1;fixedSize=1;" vertex="1" parent="1">
          <mxGeometry x="360" y="80" width="80" height="30" as="geometry" />
        </mxCell>
        <mxCell id="XrIg1SnajAhdOKtyu1J4-3" value="if&lt;div&gt;numero % 2&lt;/div&gt;&lt;div&gt;&lt;br&gt;&lt;/div&gt;" style="rhombus;whiteSpace=wrap;html=1;" vertex="1" parent="1">
          <mxGeometry x="360" y="130" width="80" height="80" as="geometry" />
        </mxCell>
        <mxCell id="XrIg1SnajAhdOKtyu1J4-4" value="&quot;é par&quot;" style="shape=document;whiteSpace=wrap;html=1;boundedLbl=1;" vertex="1" parent="1">
          <mxGeometry x="240" y="150" width="60" height="50" as="geometry" />
        </mxCell>
        <mxCell id="XrIg1SnajAhdOKtyu1J4-5" value="&quot;é impar&quot;" style="shape=document;whiteSpace=wrap;html=1;boundedLbl=1;" vertex="1" parent="1">
          <mxGeometry x="490" y="150" width="60" height="50" as="geometry" />
        </mxCell>
        <mxCell id="XrIg1SnajAhdOKtyu1J4-6" value="" style="endArrow=classic;html=1;rounded=0;exitX=0;exitY=0.5;exitDx=0;exitDy=0;entryX=1.007;entryY=0.404;entryDx=0;entryDy=0;entryPerimeter=0;" edge="1" parent="1" source="XrIg1SnajAhdOKtyu1J4-3" target="XrIg1SnajAhdOKtyu1J4-4">
          <mxGeometry width="50" height="50" relative="1" as="geometry">
            <mxPoint x="330" y="300" as="sourcePoint" />
            <mxPoint x="380" y="250" as="targetPoint" />
          </mxGeometry>
        </mxCell>
        <mxCell id="XrIg1SnajAhdOKtyu1J4-7" value="sim" style="text;html=1;align=center;verticalAlign=middle;resizable=0;points=[];autosize=1;strokeColor=none;fillColor=none;" vertex="1" parent="1">
          <mxGeometry x="310" y="148" width="40" height="30" as="geometry" />
        </mxCell>
        <mxCell id="XrIg1SnajAhdOKtyu1J4-8" value="" style="endArrow=classic;html=1;rounded=0;exitX=1;exitY=0.5;exitDx=0;exitDy=0;entryX=-0.01;entryY=0.404;entryDx=0;entryDy=0;entryPerimeter=0;" edge="1" parent="1" source="XrIg1SnajAhdOKtyu1J4-3" target="XrIg1SnajAhdOKtyu1J4-5">
          <mxGeometry width="50" height="50" relative="1" as="geometry">
            <mxPoint x="330" y="300" as="sourcePoint" />
            <mxPoint x="380" y="250" as="targetPoint" />
          </mxGeometry>
        </mxCell>
        <mxCell id="XrIg1SnajAhdOKtyu1J4-9" value="não" style="text;html=1;align=center;verticalAlign=middle;resizable=0;points=[];autosize=1;strokeColor=none;fillColor=none;" vertex="1" parent="1">
          <mxGeometry x="440" y="148" width="40" height="30" as="geometry" />
        </mxCell>
        <mxCell id="XrIg1SnajAhdOKtyu1J4-10" value="fim" style="ellipse;whiteSpace=wrap;html=1;" vertex="1" parent="1">
          <mxGeometry x="365" y="240" width="70" height="50" as="geometry" />
        </mxCell>
        <mxCell id="XrIg1SnajAhdOKtyu1J4-11" value="" style="endArrow=classic;html=1;rounded=0;exitX=0.49;exitY=0.873;exitDx=0;exitDy=0;exitPerimeter=0;entryX=0;entryY=0.5;entryDx=0;entryDy=0;" edge="1" parent="1" source="XrIg1SnajAhdOKtyu1J4-4" target="XrIg1SnajAhdOKtyu1J4-10">
          <mxGeometry width="50" height="50" relative="1" as="geometry">
            <mxPoint x="330" y="300" as="sourcePoint" />
            <mxPoint x="380" y="250" as="targetPoint" />
            <Array as="points">
              <mxPoint x="269" y="265" />
            </Array>
          </mxGeometry>
        </mxCell>
        <mxCell id="XrIg1SnajAhdOKtyu1J4-12" value="" style="endArrow=classic;html=1;rounded=0;exitX=0.519;exitY=0.832;exitDx=0;exitDy=0;exitPerimeter=0;entryX=1;entryY=0.5;entryDx=0;entryDy=0;" edge="1" parent="1" source="XrIg1SnajAhdOKtyu1J4-5" target="XrIg1SnajAhdOKtyu1J4-10">
          <mxGeometry width="50" height="50" relative="1" as="geometry">
            <mxPoint x="279" y="204" as="sourcePoint" />
            <mxPoint x="375" y="275" as="targetPoint" />
            <Array as="points">
              <mxPoint x="520" y="265" />
            </Array>
          </mxGeometry>
        </mxCell>
        <mxCell id="XrIg1SnajAhdOKtyu1J4-13" value="" style="endArrow=classic;html=1;rounded=0;exitX=0.5;exitY=1;exitDx=0;exitDy=0;entryX=0.5;entryY=0;entryDx=0;entryDy=0;" edge="1" parent="1" source="XrIg1SnajAhdOKtyu1J4-2" target="XrIg1SnajAhdOKtyu1J4-3">
          <mxGeometry width="50" height="50" relative="1" as="geometry">
            <mxPoint x="330" y="300" as="sourcePoint" />
            <mxPoint x="380" y="250" as="targetPoint" />
          </mxGeometry>
        </mxCell>
        <mxCell id="XrIg1SnajAhdOKtyu1J4-14" value="" style="endArrow=classic;html=1;rounded=0;exitX=0.5;exitY=1;exitDx=0;exitDy=0;entryX=0.5;entryY=0;entryDx=0;entryDy=0;" edge="1" parent="1" source="XrIg1SnajAhdOKtyu1J4-1" target="XrIg1SnajAhdOKtyu1J4-2">
          <mxGeometry width="50" height="50" relative="1" as="geometry">
            <mxPoint x="330" y="300" as="sourcePoint" />
            <mxPoint x="380" y="250" as="targetPoint" />
          </mxGeometry>
        </mxCell>
      </root>
    </mxGraphModel>
  </diagram>
</mxfile>
